<svg id="Layer_1" data-name="Layer 1" xmlns="http://www.w3.org/2000/svg" viewBox="0 0 945 709" height="90px"><defs><style>.cls-1{fill:#e0922f;}.cls-2{fill:#272425;}.cls-3{fill:#fff;}</style></defs><title>paag-logo2</title><rect class="cls-1" width="945" height="600"/><rect class="cls-2" y="620" width="945" height="89"/><path class="cls-1" d="M30.89,645.42a58.21,58.21,0,0,1,9.69-.75c5,0,8.64,1.16,11,3.24A10.51,10.51,0,0,1,55,656.09a11.5,11.5,0,0,1-3,8.35c-2.67,2.84-7,4.29-12,4.29a17.39,17.39,0,0,1-4.06-.34v15.66h-5Zm5,18.85a16.9,16.9,0,0,0,4.17.4c6.09,0,9.81-2.95,9.81-8.35,0-5.16-3.66-7.65-9.23-7.65a21.36,21.36,0,0,0-4.75.4Z"/><path class="cls-1" d="M82.28,665.72H67.08v14.09H84v4.24H62V645H83.15v4.23H67.08v12.35h15.2Z"/><path class="cls-1" d="M99.21,649.25H87.33V645h28.94v4.29h-12v34.8H99.21Z"/><path class="cls-3" d="M139.81,671.75l-4.06,12.3h-5.22L143.82,645h6.09l13.34,39.09h-5.4l-4.17-12.3Zm12.82-3.94-3.83-11.26c-.87-2.55-1.45-4.87-2-7.13h-.11c-.58,2.32-1.22,4.7-2,7.08l-3.83,11.31Z"/><path class="cls-3" d="M169.28,645.48a71.48,71.48,0,0,1,10.73-.81c7.25,0,12.41,1.68,15.83,4.87s5.51,7.71,5.51,14-2,11.6-5.62,15.2-9.69,5.62-17.29,5.62a81.52,81.52,0,0,1-9.16-.46Zm5,34.56a31.08,31.08,0,0,0,5.11.29c10.79,0,16.64-6,16.64-16.58.06-9.23-5.16-15.08-15.83-15.08a28.79,28.79,0,0,0-5.92.52Z"/><path class="cls-3" d="M216.78,684.05,204,645h5.45l6.09,19.25c1.68,5.28,3.13,10,4.18,14.62h.11c1.11-4.53,2.73-9.46,4.47-14.56L230.93,645h5.39l-14,39.09Z"/><path class="cls-3" d="M261.09,665.72H245.9v14.09h16.93v4.24h-22V645H262v4.23H245.9v12.35h15.19Z"/><path class="cls-3" d="M269.67,645.48a52.86,52.86,0,0,1,9.69-.81c5.39,0,8.87,1,11.31,3.18a9.75,9.75,0,0,1,3.07,7.43,10.25,10.25,0,0,1-7.36,10v.18c3,1,4.81,3.83,5.74,7.89,1.28,5.45,2.2,9.22,3,10.73h-5.22c-.64-1.11-1.51-4.47-2.61-9.34-1.16-5.4-3.25-7.43-7.83-7.6h-4.76v16.94h-5.05Zm5.05,17.8h5.16c5.4,0,8.82-3,8.82-7.42,0-5.05-3.66-7.25-9-7.31a20.91,20.91,0,0,0-5,.46Z"/><path class="cls-3" d="M309.11,649.25H297.22V645h28.95v4.29H314.22v34.8h-5.11Z"/><path class="cls-3" d="M335.85,645v39.09h-5V645Z"/><path class="cls-3" d="M344.26,677.9a17.9,17.9,0,0,0,9.05,2.55c5.16,0,8.18-2.73,8.18-6.67,0-3.65-2.09-5.74-7.37-7.77-6.38-2.26-10.32-5.57-10.32-11.08,0-6.09,5-10.61,12.64-10.61a17.84,17.84,0,0,1,8.64,1.91l-1.39,4.12a15.47,15.47,0,0,0-7.42-1.86c-5.34,0-7.37,3.19-7.37,5.86,0,3.65,2.38,5.45,7.77,7.54,6.62,2.55,10,5.74,10,11.48,0,6-4.47,11.26-13.69,11.26-3.77,0-7.89-1.11-10-2.5Z"/><path class="cls-3" d="M378.89,645v39.09h-5.05V645Z"/><path class="cls-3" d="M388,684.05V645h5.51L406,664.73a111.3,111.3,0,0,1,7,12.7l.11,0c-.46-5.22-.58-10-.58-16.07V645h4.76v39.09h-5.1l-12.42-19.84a125.1,125.1,0,0,1-7.3-13.05l-.18.06c.29,4.93.41,9.63.41,16.12v16.71Z"/><path class="cls-3" d="M456.2,682.31a36.51,36.51,0,0,1-12,2.14c-5.91,0-10.78-1.51-14.61-5.16-3.37-3.25-5.45-8.47-5.45-14.56.05-11.66,8.06-20.18,21.17-20.18a24.18,24.18,0,0,1,9.74,1.8l-1.22,4.11a20.4,20.4,0,0,0-8.64-1.68c-9.51,0-15.72,5.92-15.72,15.72s6,15.78,15.08,15.78a16.43,16.43,0,0,0,6.73-1V667.57h-7.95v-4.06H456.2Z"/><path class="cls-3" d="M483.11,671.75l-4.06,12.3h-5.22L487.11,645h6.09l13.34,39.09h-5.39L497,671.75Zm12.82-3.94-3.83-11.26c-.87-2.55-1.45-4.87-2-7.13H490c-.58,2.32-1.22,4.7-2,7.08l-3.82,11.31Z"/><path class="cls-3" d="M512.58,645.48a71.37,71.37,0,0,1,10.73-.81c7.25,0,12.41,1.68,15.83,4.87s5.51,7.71,5.51,14-2,11.6-5.63,15.2-9.68,5.62-17.28,5.62a81.39,81.39,0,0,1-9.16-.46Zm5,34.56a31,31,0,0,0,5.11.29c10.78,0,16.64-6,16.64-16.58.06-9.23-5.16-15.08-15.83-15.08a28.79,28.79,0,0,0-5.92.52Z"/><path class="cls-3" d="M560.08,684.05,547.32,645h5.45l6.09,19.25c1.68,5.28,3.13,10,4.17,14.62h.12c1.1-4.53,2.73-9.46,4.47-14.56L574.23,645h5.39l-14,39.09Z"/><path class="cls-3" d="M589.19,645v39.09h-5V645Z"/><path class="cls-3" d="M597.6,677.9a17.93,17.93,0,0,0,9,2.55c5.16,0,8.18-2.73,8.18-6.67,0-3.65-2.09-5.74-7.37-7.77-6.38-2.26-10.32-5.57-10.32-11.08,0-6.09,5.05-10.61,12.64-10.61a17.77,17.77,0,0,1,8.64,1.91L617,650.35a15.47,15.47,0,0,0-7.42-1.86c-5.34,0-7.37,3.19-7.37,5.86,0,3.65,2.38,5.45,7.78,7.54,6.61,2.55,10,5.74,10,11.48,0,6-4.46,11.26-13.69,11.26-3.77,0-7.88-1.11-10-2.5Z"/><path class="cls-3" d="M660.59,664.09c0,13.46-8.18,20.59-18.15,20.59-10.33,0-17.58-8-17.58-19.83,0-12.41,7.72-20.53,18.16-20.53C653.69,644.32,660.59,652.5,660.59,664.09Zm-30.33.64c0,8.35,4.52,15.84,12.47,15.84s12.52-7.37,12.52-16.24c0-7.78-4.06-15.9-12.46-15.9S630.26,656.15,630.26,664.73Z"/><path class="cls-3" d="M667.44,645.48a52.66,52.66,0,0,1,9.68-.81c5.39,0,8.88,1,11.31,3.18a9.75,9.75,0,0,1,3.07,7.43,10.25,10.25,0,0,1-7.36,10v.18c3,1,4.81,3.83,5.74,7.89,1.28,5.45,2.2,9.22,3,10.73h-5.22c-.64-1.11-1.51-4.47-2.61-9.34-1.16-5.4-3.25-7.43-7.83-7.6h-4.76v16.94h-5Zm5,17.8h5.16c5.4,0,8.82-3,8.82-7.42,0-5.05-3.66-7.25-9-7.31a20.91,20.91,0,0,0-5,.46Z"/><path class="cls-3" d="M707,684.05V667.46L694.64,645h5.74l5.51,10.78c1.51,3,2.67,5.34,3.89,8.06h.11c1.1-2.55,2.44-5.1,3.94-8.06L719.46,645h5.74L712.1,667.4v16.65Z"/><path class="cls-3" d="M772.3,682.31a36.51,36.51,0,0,1-12,2.14c-5.91,0-10.79-1.51-14.61-5.16-3.37-3.25-5.46-8.47-5.46-14.56.06-11.66,8.07-20.18,21.17-20.18a24.2,24.2,0,0,1,9.75,1.8l-1.22,4.11a20.4,20.4,0,0,0-8.64-1.68c-9.51,0-15.72,5.92-15.72,15.72s6,15.78,15.08,15.78a16.43,16.43,0,0,0,6.73-1V667.57h-8v-4.06H772.3Z"/><path class="cls-3" d="M780.3,645.48a52.78,52.78,0,0,1,9.69-.81c5.39,0,8.87,1,11.31,3.18a9.75,9.75,0,0,1,3.07,7.43,10.26,10.26,0,0,1-7.36,10v.18c3,1,4.81,3.83,5.74,7.89,1.27,5.45,2.2,9.22,3,10.73h-5.22c-.63-1.11-1.5-4.47-2.61-9.34-1.16-5.4-3.24-7.43-7.83-7.6h-4.75v16.94H780.3Zm5.05,17.8h5.16c5.39,0,8.82-3,8.82-7.42,0-5.05-3.66-7.25-9-7.31a20.91,20.91,0,0,0-5,.46Z"/><path class="cls-3" d="M845.38,664.09c0,13.46-8.18,20.59-18.16,20.59-10.32,0-17.57-8-17.57-19.83,0-12.41,7.71-20.53,18.15-20.53C838.48,644.32,845.38,652.5,845.38,664.09Zm-30.34.64c0,8.35,4.53,15.84,12.47,15.84S840,673.2,840,664.33c0-7.78-4.06-15.9-12.47-15.9S815,656.15,815,664.73Z"/><path class="cls-3" d="M857.27,645V668.1c0,8.75,3.88,12.47,9.1,12.47,5.8,0,9.52-3.83,9.52-12.47V645H881v22.79c0,12-6.32,16.93-14.79,16.93-8,0-14-4.58-14-16.7V645Z"/><path class="cls-3" d="M890,645.42a58,58,0,0,1,9.68-.75c5,0,8.65,1.16,11,3.24a10.54,10.54,0,0,1,3.42,8.18,11.51,11.51,0,0,1-3,8.35c-2.67,2.84-7,4.29-12,4.29a17.44,17.44,0,0,1-4.06-.34v15.66h-5Zm5,18.85a17,17,0,0,0,4.18.4c6.09,0,9.8-2.95,9.8-8.35,0-5.16-3.65-7.65-9.22-7.65a21.46,21.46,0,0,0-4.76.4Z"/><path class="cls-3" d="M271.68,153.59l-14.8-41-21,28.41c-18.6-5-38.84-8.84-64.44-7.31-7.76.46-33.84,6.2-34.93,8.09a4.45,4.45,0,0,1-.38.58L113,112.75l-12.88,39.09c-16.69,14.88-28.68,36.44-33.68,55.78V549.55l53.15-3v-187c12.22,3.06,26.37,8.62,42.78,10.67,51.53,6.44,86.95-1.37,118.86-27.22,22.27-18,41.77-53.71,41.77-91,0-36.66-16.88-65-38-86.15A163.23,163.23,0,0,0,271.68,153.59ZM164.75,246.75a6,6,0,1,1,6-6A6,6,0,0,1,164.75,246.75Zm32.5,45.83v31.3h-6v-30L172.75,273l37.75-2.5Zm21.5-45.83a6,6,0,1,1,6-6A6,6,0,0,1,218.75,246.75Z"/><path class="cls-3" d="M415.7,227.68c14-7.45,15.73-31.64,3.83-54s-32.91-34.52-46.93-27.08-15.72,31.64-3.82,54S401.69,235.12,415.7,227.68Z"/><ellipse class="cls-3" cx="590.39" cy="189.75" rx="45.93" ry="28.73" transform="matrix(0.79, -0.61, 0.61, 0.79, 7.4, 401.16)"/><path class="cls-3" d="M490.84,207.43c15.87,0,28.73-20.56,28.73-45.93s-12.86-45.93-28.73-45.93S462.1,136.14,462.1,161.5,475,207.43,490.84,207.43Z"/><path class="cls-3" d="M490,223.21c-90.8,0-146.19,74.06-146.19,168.08s57.32,157.13,153.27,157.13c49.59,0,83.72-10.3,103.69-19.32l-9.66-40.57c-21.25,9-45.73,16.1-86.3,16.1-56.67,0-105.61-31.55-106.9-108.19h219A214.66,214.66,0,0,0,618.8,370C618.8,312.72,591.75,223.21,490,223.21Zm74.06,132.66H398.55c4.51-39.28,29.63-92.09,86.94-92.09C549.25,263.78,564.7,319.81,564.06,355.87Z"/><path class="cls-3" d="M918.76,199.29H886.34L856.9,116.48c.49-.69.94-1.41,1.14-1.72a27.34,27.34,0,0,0,2.83-5.77,24.61,24.61,0,0,0,1.47-13,33.11,33.11,0,0,0-4.86-12.13,34.38,34.38,0,0,0-5.78-6.56c-2.19-2-5.21-3.44-7.85-4.75a43.47,43.47,0,0,0-8.13-2.67,27.05,27.05,0,0,0-4.75-.68,19.79,19.79,0,0,0-5.1,0,25.62,25.62,0,0,0-12,5.82,30.85,30.85,0,0,0-7.36,9.41,20.24,20.24,0,0,0-2,4.9A13.85,13.85,0,0,0,804,93c-3.74,3.06-7.44,6-11.18,9-.06.09-.11.15,0,.29a18.21,18.21,0,0,0,6.79,5.14,28.17,28.17,0,0,0,8.46,1.82,39.82,39.82,0,0,0-9.8,13.17c-3.18,6.77-5.76,19-5.76,26.38,0,16.5,4.31,28.35,10,35,2,2.38,7.94,7.37,16.5,10.75a57.39,57.39,0,0,0,11.47,2.8,111.22,111.22,0,0,0,13.78,1.29c8.88.29,19,.16,19.92.16s2.21-.07,3.67-.16l.14.6H752.62V116.77l-55.39,18.82v63.7h-48.3v47.15h48.3v199c0,36.71,5.8,64.4,21.9,81.15,13.52,15.45,34.77,23.82,61.18,23.82,21.89,0,39.28-3.22,50.23-7.72L828,495.19c-7.08,1.94-18.12,5.52-32.84,3.87-31.62-3.56-39.62-18.06-42.5-55.54V246.44H878.86l9.81,42.49,22.66-19.33-8.23-23.16h12.66Zm-92.76-99A4.25,4.25,0,1,1,830.25,96,4.25,4.25,0,0,1,826,100.27Z"/></svg>